<svg xmlns="http://www.w3.org/2000/svg" viewBox="0 0 100 100">
  <rect width="100" height="100" rx="24" fill="#3b82f6"/>
  <path d="M 47.86 19.96 Q 50.00 16.00 52.14 19.96 L 57.36 29.59 Q 59.50 33.55 64.00 33.42 L 74.95 33.12 Q 79.44 33.00 77.09 36.83 L 71.36 46.17 Q 69.00 50.00 71.36 53.83 L 77.09 63.17 Q 79.44 67.00 74.95 66.88 L 64.00 66.58 Q 59.50 66.45 57.36 70.41 L 52.14 80.04 Q 50.00 84.00 47.86 80.04 L 42.64 70.41 Q 40.50 66.45 36.00 66.58 L 25.05 66.88 Q 20.56 67.00 22.91 63.17 L 28.64 53.83 Q 31.00 50.00 28.64 46.17 L 22.91 36.83 Q 20.56 33.00 25.05 33.12 L 36.00 33.42 Q 40.50 33.55 42.64 29.59 Z" fill="#ffffff"/>
</svg>
