<svg xmlns="http://www.w3.org/2000/svg" viewBox="0 0 100 100">
  <style>.s{fill:#ffffff}@media (prefers-color-scheme: light){.s{fill:#0a0a0b}}</style>
  <path class="s" d="M 47.54 9.46 Q 50.00 9.00 52.46 9.46 L 62.35 11.31 Q 64.81 11.77 66.94 13.08 L 75.50 18.38 Q 77.62 19.70 79.13 21.70 L 85.20 29.73 Q 86.70 31.72 87.39 34.13 L 90.14 43.81 Q 90.83 46.22 90.59 48.71 L 89.67 58.73 Q 89.43 61.22 88.32 63.46 L 83.83 72.47 Q 82.72 74.71 80.87 76.39 L 73.43 83.17 Q 71.58 84.86 69.25 85.76 L 59.86 89.40 Q 57.53 90.30 55.03 90.30 L 44.97 90.30 Q 42.47 90.30 40.14 89.40 L 30.75 85.76 Q 28.42 84.86 26.57 83.17 L 19.13 76.39 Q 17.28 74.71 16.17 72.47 L 11.68 63.46 Q 10.57 61.22 10.33 58.73 L 9.41 48.71 Q 9.17 46.22 9.86 43.81 L 12.61 34.13 Q 13.30 31.72 14.80 29.73 L 20.87 21.70 Q 22.38 19.70 24.50 18.38 L 33.06 13.08 Q 35.19 11.77 37.65 11.31 Z"/>
</svg>
