<svg xmlns="http://www.w3.org/2000/svg" viewBox="0 0 100 100">
  <style>.s{fill:#ffffff}@media (prefers-color-scheme: light){.s{fill:#0a0a0b}}</style>
  <path class="s" d="M 47.68 14.43 Q 50.00 10.00 52.32 14.43 L 58.68 26.52 Q 61.00 30.95 66.00 30.75 L 79.65 30.20 Q 84.64 30.00 81.97 34.23 L 74.67 45.77 Q 72.00 50.00 74.67 54.23 L 81.97 65.77 Q 84.64 70.00 79.65 69.80 L 66.00 69.25 Q 61.00 69.05 58.68 73.48 L 52.32 85.57 Q 50.00 90.00 47.68 85.57 L 41.32 73.48 Q 39.00 69.05 34.00 69.25 L 20.35 69.80 Q 15.36 70.00 18.03 65.77 L 25.33 54.23 Q 28.00 50.00 25.33 45.77 L 18.03 34.23 Q 15.36 30.00 20.35 30.20 L 34.00 30.75 Q 39.00 30.95 41.32 26.52 Z"/>
</svg>
